<svg width="42" height="19" viewBox="0 0 42 19" fill="none" xmlns="http://www.w3.org/2000/svg">
<path d="M0 18.9062V0H7.5625V3.68457H3.80273V6.69238H7.36914V10.334H3.80273V18.9062H0ZM8.61523 18.9062V0H12.2676V18.9062H8.61523ZM15.3936 18.9062V3.63086H13.1484V0H21.4199V3.63086H19.1748V18.9062H15.3936ZM22.2256 18.8955V15.6943H26.0713V18.8955H22.2256ZM26.9844 18.9062L28.8105 0H35.2236L37.0176 18.9062H33.4404L33.1719 15.8555H30.8945L30.6582 18.9062H26.9844ZM31.1631 12.8369H32.8818L32.0547 3.22266H31.8828L31.1631 12.8369ZM38.0059 18.9062V0H41.6582V18.9062H38.0059Z" fill="black"/>
</svg>
